/* XPM */
static char * close_active_xpm[] = {
"16 16 5 1",
" 	c None",
".	c #5C5C5C",
"+	c #5E5E5E",
"@	c #5D5D5D",
"#	c #EEEEEE",
"................",
"+............@+.",
"..##........##..",
"..###......###..",
"...###....###...",
"....###..###....",
".....######.....",
"......####......",
"......####......",
".....######.....",
"....###..###....",
"...###....###...",
"..###......###..",
"..##........##..",
".@............@.",
"................"};
