/* XPM */
static char * minimize_pressed_xpm[] = {
"16 16 3 1",
" 	c None",
".	c #5C5C5C",
"+	c #FFA800",
"................",
"................",
"................",
"................",
"................",
"................",
"................",
"...++++++++++...",
"...++++++++++...",
"................",
"................",
"................",
"................",
"................",
"................",
"................"};
