/* XPM */
static char * minimize_inactive_xpm[] = {
"16 16 3 1",
" 	c None",
".	c #ACACAC",
"+	c #EEEEEE",
"................",
"................",
"................",
"................",
"................",
"................",
"................",
"...++++++++++...",
"...++++++++++...",
"................",
"................",
"................",
"................",
"................",
"................",
"................"};
