/* XPM */
static char * title_1_active_xpm[] = {
"1 19 4 1",
" 	c None",
".	c #202020",
"+	c #CFCFCF",
"@	c #5C5C5C",
".",
"+",
"@",
"@",
"@",
"@",
"@",
"@",
"@",
"@",
"@",
"@",
"@",
"@",
"@",
"@",
"@",
"@",
"."};
