/* XPM */
static char * top_right_active_xpm[] = {
"4 19 4 1",
" 	c None",
".	c #202020",
"+	c #CFCFCF",
"@	c #5C5C5C",
"....",
"+++.",
"@@+.",
"@@+.",
"@@+.",
"@@+.",
"@@+.",
"@@+.",
"@@+.",
"@@+.",
"@@+.",
"@@+.",
"@@+.",
"@@+.",
"@@+.",
"@@+.",
"@@+.",
"@@+.",
".@+."};
